<svg xmlns="http://www.w3.org/2000/svg" viewBox="0 0 360 96" role="img" aria-label="Elimu Moja, the EAC Education System">
  <title>Elimu Moja</title>
  <!-- region mark -->
  <rect x="4" y="4" width="88" height="88" rx="20" fill="#e1f0e2"/>
  <rect x="4.5" y="4.5" width="87" height="87" rx="19.5" fill="none" stroke="#127a3a" stroke-opacity="0.28"/>
  <g transform="translate(14 12) scale(1.7)">
    <path d="M10.5 6.5 L24 4.8 Q26.5 5 27 8 L27.5 12.5 L36.8 14.2 Q38 15 36.5 17.5 L33.5 22 Q31 24.5 26 24 L25.2 32 Q25 35 21.5 35.4 L12 34.3 Q7 33.5 5.2 27 L5.5 15 Q6 9 10.5 6.5 Z"
          fill="#127a3a" stroke="#a3760c" stroke-width="1.3" stroke-linejoin="round"/>
    <circle cx="17.4" cy="20.6" r="2.6" fill="#e3b545"/>
  </g>
  <!-- wordmark -->
  <text x="112" y="46" font-family="Archivo, 'Segoe UI', system-ui, sans-serif" font-size="30" font-weight="800" letter-spacing="-0.5" fill="#18180f">Elimu Moja</text>
  <text x="113" y="68" font-family="'IBM Plex Mono', ui-monospace, monospace" font-size="11" letter-spacing="2.4" fill="#7d7d6a">EAC EDUCATION SYSTEM</text>
</svg>
